<?xml version="1.0" encoding="utf-8"?>
<!-- Generator: Adobe Illustrator 27.5.0, SVG Export Plug-In . SVG Version: 6.00 Build 0)  -->
<svg version="1.1" xmlns="http://www.w3.org/2000/svg" xmlns:xlink="http://www.w3.org/1999/xlink" x="0px" y="0px"
	 viewBox="0 0 500 500" style="enable-background:new 0 0 500 500;" xml:space="preserve">
<g id="Background__Complete">
	<g>
		<g>
			<g>
				<g>
					<rect y="382.398" style="fill:#E0E0E0;" width="500" height="0.25"/>
					<rect x="86.296" y="388.438" style="fill:#E0E0E0;" width="10.482" height="0.25"/>
					<rect x="412" y="395" style="fill:#E0E0E0;" width="39.92" height="0.25"/>
					<rect x="391.503" y="388.563" style="fill:#E0E0E0;" width="30.663" height="0.25"/>
					<rect x="282.851" y="394.264" style="fill:#E0E0E0;" width="49.815" height="0.25"/>
					<rect x="143" y="392.681" style="fill:#E0E0E0;" width="52.444" height="0.25"/>
					<rect x="380.62" y="395" style="fill:#E0E0E0;" width="13.277" height="0.25"/>
					<rect x="64.932" y="392.556" style="fill:#E0E0E0;" width="16.468" height="0.25"/>
					<path style="fill:#E0E0E0;" d="M237.014,337.8H43.915c-3.147,0-5.708-2.561-5.708-5.708V60.66c0-3.147,2.561-5.708,5.708-5.708
						h193.099c3.146,0,5.707,2.561,5.707,5.708v271.432C242.721,335.239,240.16,337.8,237.014,337.8z M43.915,55.203
						c-3.01,0-5.458,2.448-5.458,5.458v271.432c0,3.01,2.448,5.458,5.458,5.458h193.099c3.009,0,5.457-2.448,5.457-5.458V60.66
						c0-3.009-2.448-5.458-5.457-5.458H43.915z"/>
					<path style="fill:#E0E0E0;" d="M453.31,337.8H260.212c-3.146,0-5.707-2.561-5.707-5.708V60.66c0-3.147,2.561-5.708,5.707-5.708
						H453.31c3.148,0,5.708,2.561,5.708,5.708v271.432C459.019,335.239,456.458,337.8,453.31,337.8z M260.212,55.203
						c-3.009,0-5.457,2.448-5.457,5.458v271.432c0,3.01,2.448,5.458,5.457,5.458H453.31c3.01,0,5.458-2.448,5.458-5.458V60.66
						c0-3.009-2.448-5.458-5.458-5.458H260.212z"/>
				</g>
			</g>
		</g>
		<g>
			<g>
				<g>
					<g>
						
							<rect x="69.08" y="79.267" transform="matrix(-1 -1.224647e-16 1.224647e-16 -1 288.8575 366.9849)" style="fill:#E0E0E0;" width="150.698" height="208.452"/>
						
							<rect x="65.731" y="79.267" transform="matrix(-1 -1.224647e-16 1.224647e-16 -1 282.1597 366.9849)" style="fill:#F0F0F0;" width="150.698" height="208.452"/>
						
							<rect x="42.934" y="114.155" transform="matrix(-1.836970e-16 1 -1 -1.836970e-16 324.5724 42.4127)" style="fill:#FAFAFA;" width="196.291" height="138.676"/>
						
							<rect x="22.45" y="178.96" transform="matrix(-1.836970e-16 1 -1 -1.836970e-16 304.0876 62.8974)" style="fill:#E0E0E0;" width="196.291" height="9.065"/>
						
							<rect x="70.117" y="178.96" transform="matrix(-1.836970e-16 1 -1 -1.836970e-16 351.7547 15.2303)" style="fill:#E0E0E0;" width="196.291" height="9.065"/>
						
							<rect x="15.073" y="178.629" transform="matrix(-1.836970e-16 1 -1 -1.836970e-16 300.5695 65.7527)" style="fill:#F0F0F0;" width="204.67" height="9.065"/>
						
							<rect x="62.74" y="178.629" transform="matrix(-1.836970e-16 1 -1 -1.836970e-16 348.2365 18.0856)" style="fill:#F0F0F0;" width="204.67" height="9.065"/>
						
							<rect x="-25.138" y="182.227" transform="matrix(-1.836970e-16 1 -1 -1.836970e-16 256.5003 110.4846)" style="fill:#E0E0E0;" width="196.291" height="2.532"/>
					</g>
				</g>
			</g>
			<g>
				<g>
					<path style="fill:#E0E0E0;" d="M63.207,71.447H224.42c0.426,0,0.775,0.349,0.775,0.775l0,0c0,0.426-0.349,0.775-0.775,0.775
						H63.207c-0.426,0-0.775-0.349-0.775-0.775l0,0C62.432,71.796,62.781,71.447,63.207,71.447z"/>
					<path style="fill:#E0E0E0;" d="M58.556,72.222c0,2.141,1.735,3.876,3.876,3.876c2.141,0,3.876-1.735,3.876-3.876
						c0-2.141-1.735-3.876-3.876-3.876C60.291,68.346,58.556,70.081,58.556,72.222z"/>
					<path style="fill:#E0E0E0;" d="M217.884,76.564L217.884,76.564c0.576,0,1.047-0.471,1.047-1.047v-2.248
						c0-0.576-0.471-1.047-1.047-1.047l0,0c-0.576,0-1.047,0.471-1.047,1.047v2.248C216.838,76.093,217.309,76.564,217.884,76.564z"
						/>
					<path style="fill:#E0E0E0;" d="M74.898,76.564L74.898,76.564c0.576,0,1.047-0.471,1.047-1.047v-2.248
						c0-0.576-0.471-1.047-1.047-1.047l0,0c-0.576,0-1.047,0.471-1.047,1.047v2.248C73.852,76.093,74.323,76.564,74.898,76.564z"/>
				</g>
				
					<rect x="63.455" y="72.222" transform="matrix(-1 -1.224647e-16 1.224647e-16 -1 277.4973 245.4444)" style="opacity:0.4;fill:#E0E0E0;" width="150.588" height="101"/>
				<path style="fill:#E0E0E0;" d="M201.541,72.222c0,2.141,1.735,3.876,3.876,3.876c2.141,0,3.876-1.735,3.876-3.876
					c0-2.141-1.735-3.876-3.876-3.876C203.277,68.346,201.541,70.081,201.541,72.222z"/>
			</g>
			<g>
				<path style="fill:#E0E0E0;" d="M315.675,209.162c0,0,13.075-22.539-5.064-40.481c0,0-4.734,3.086-4.662,7.234
					c0.073,4.148,5.07,5.198,3.996,8.66c-1.074,3.462-5.792,6.858-2.695,9.72c3.097,2.862-0.499,5.41-0.29,8.916
					C307.169,206.718,315.675,209.162,315.675,209.162z"/>
				<path style="fill:#E6E6E6;" d="M313.622,212.847c0,0-5.3-25.512,17.571-36.818c0,0,3.52,4.421,2.143,8.335
					c-1.377,3.914-6.45,3.334-6.523,6.958c-0.073,3.624,3.334,8.335-0.507,10.074c-3.841,1.739-1.232,5.291-2.537,8.552
					C322.464,213.209,313.622,212.847,313.622,212.847z"/>
				<g>
					<path style="fill:#F0F0F0;" d="M330.291,198.932c0,0-0.322,30.884-12.666,30.884c-12.344,0-12.666-30.884-12.666-30.884
						H330.291z"/>
				</g>
			</g>
			<g>
				<path style="fill:#E6E6E6;" d="M404.492,218.196c0,0-0.688,11.62-27.063,11.62c-26.375,0-27.063-11.62-27.063-11.62H404.492z"/>
			</g>
			<g>
				<path style="fill:#F0F0F0;" d="M135.408,347.435h13.927c1.732,0,3.136-1.404,3.136-3.136v-23.032
					c0-1.732-1.404-3.136-3.136-3.136h-13.927c-1.732,0-3.136,1.404-3.136,3.136v23.032
					C132.272,346.031,133.676,347.435,135.408,347.435z"/>
				<path style="fill:#E6E6E6;" d="M98.494,347.435h9.371c1.166,0,2.11-0.945,2.11-2.11v-15.499c0-1.165-0.945-2.11-2.11-2.11
					h-9.371c-1.165,0-2.11,0.945-2.11,2.11v15.499C96.383,346.49,97.328,347.435,98.494,347.435z"/>
				<path style="fill:#F0F0F0;" d="M97.092,328.021h12.175c0.391,0,0.709-0.317,0.709-0.709v-0.806c0-0.391-0.317-0.708-0.709-0.708
					H97.092c-0.391,0-0.709,0.317-0.709,0.708v0.806C96.383,327.704,96.701,328.021,97.092,328.021z"/>
				<path style="fill:#E6E6E6;" d="M184.688,331.131c0,0-0.498,16.304-19.591,16.304c-19.093,0-19.591-16.304-19.591-16.304H184.688
					z"/>
				<g>
					<g>
						<rect x="203.281" y="347.435" style="fill:#E0E0E0;" width="28.889" height="5.696"/>
						
							<rect x="59.651" y="347.435" transform="matrix(-1 -1.224647e-16 1.224647e-16 -1 262.9325 700.5655)" style="fill:#F0F0F0;" width="143.63" height="5.696"/>
					</g>
				</g>
				<g>
					<g>
						<rect x="203.281" y="362.644" style="fill:#E0E0E0;" width="28.889" height="5.696"/>
						
							<rect x="59.651" y="362.644" transform="matrix(-1 -1.224647e-16 1.224647e-16 -1 262.9325 730.9843)" style="fill:#F0F0F0;" width="143.63" height="5.696"/>
					</g>
				</g>
				
					<rect x="221.753" y="353.131" transform="matrix(-1 -1.224647e-16 1.224647e-16 -1 448.8397 735.529)" style="fill:#E0E0E0;" width="5.333" height="29.268"/>
				
					<rect x="197.948" y="353.131" transform="matrix(-1 -1.224647e-16 1.224647e-16 -1 401.2292 735.529)" style="fill:#F0F0F0;" width="5.333" height="29.268"/>
				
					<rect x="78.123" y="353.131" transform="matrix(-1 -1.224647e-16 1.224647e-16 -1 161.5796 735.529)" style="fill:#E0E0E0;" width="5.333" height="29.268"/>
				
					<rect x="59.651" y="353.131" transform="matrix(-1 -1.224647e-16 1.224647e-16 -1 124.6358 735.529)" style="fill:#F0F0F0;" width="5.333" height="29.268"/>
			</g>
			<g>
				<g>
					
						<rect x="404.492" y="237.066" transform="matrix(-1 -1.224647e-16 1.224647e-16 -1 836.3019 611.957)" style="fill:#E6E6E6;" width="27.318" height="137.826"/>
					
						<rect x="291.846" y="374.892" transform="matrix(-1 -1.224647e-16 1.224647e-16 -1 718.4105 757.2899)" style="fill:#E6E6E6;" width="134.719" height="7.507"/>
					<rect x="286.601" y="237.066" style="fill:#F0F0F0;" width="117.891" height="137.826"/>
					<rect x="297.341" y="290.094" style="fill:#E6E6E6;" width="96.411" height="31.769"/>
					<rect x="297.341" y="328.949" style="fill:#E6E6E6;" width="96.411" height="31.769"/>
					<path style="fill:#F0F0F0;" d="M334.723,294.353h21.647c1.465,0,2.664-1.199,2.664-2.664l0,0c0-1.465-1.199-2.664-2.664-2.664
						h-21.647c-1.465,0-2.664,1.199-2.664,2.664l0,0C332.059,293.154,333.258,294.353,334.723,294.353z"/>
					<rect x="297.341" y="251.239" style="fill:#E6E6E6;" width="96.411" height="31.769"/>
					<path style="fill:#F0F0F0;" d="M334.723,255.497h21.647c1.465,0,2.664-1.199,2.664-2.664l0,0c0-1.465-1.199-2.664-2.664-2.664
						h-21.647c-1.465,0-2.664,1.199-2.664,2.664l0,0C332.059,254.298,333.258,255.497,334.723,255.497z"/>
					<path style="fill:#F0F0F0;" d="M334.723,333.208h21.647c1.465,0,2.664-1.199,2.664-2.664l0,0c0-1.465-1.199-2.664-2.664-2.664
						h-21.647c-1.465,0-2.664,1.199-2.664,2.664l0,0C332.059,332.009,333.258,333.208,334.723,333.208z"/>
				</g>
				
					<rect x="282.961" y="229.815" transform="matrix(-1 -1.224647e-16 1.224647e-16 -1 687.4529 466.8809)" style="fill:#E6E6E6;" width="121.531" height="7.25"/>
				<rect x="404.492" y="229.815" style="fill:#E0E0E0;" width="31.135" height="7.25"/>
			</g>
			<g>
				
					<rect x="361.139" y="100.086" transform="matrix(-1 -1.224647e-16 1.224647e-16 -1 777.9682 263.3507)" style="fill:#E6E6E6;" width="55.691" height="63.179"/>
				
					<rect x="354.907" y="100.086" transform="matrix(-1 -1.224647e-16 1.224647e-16 -1 769.2442 263.3507)" style="fill:#F0F0F0;" width="59.43" height="63.179"/>
				
					<rect x="358.012" y="106.939" transform="matrix(-1.836970e-16 1 -1 -1.836970e-16 516.2975 -252.9468)" style="fill:#FAFAFA;" width="53.221" height="49.473"/>
				
					<rect x="370.912" y="118.93" transform="matrix(-1.836970e-16 1 -1 -1.836970e-16 516.2975 -252.9468)" style="fill:#F0F0F0;" width="27.421" height="25.49"/>
			</g>
			<g>
				<g>
					
						<rect x="300.472" y="81.432" transform="matrix(-1 -1.224647e-16 1.224647e-16 -1 642.7352 209.7311)" style="fill:#E6E6E6;" width="41.79" height="46.867"/>
					
						<rect x="295.85" y="81.432" transform="matrix(-1 -1.224647e-16 1.224647e-16 -1 635.7858 209.7311)" style="fill:#F0F0F0;" width="44.087" height="46.867"/>
					
						<rect x="298.153" y="86.516" transform="matrix(-1.836970e-16 1 -1 -1.836970e-16 422.7585 -213.0275)" style="fill:#FAFAFA;" width="39.48" height="36.7"/>
					<polygon style="fill:#F0F0F0;" points="317.893,94.885 327.93,112.27 307.856,112.27 					"/>
				</g>
			</g>
		</g>
	</g>
</g>
<g id="Background_Simple" style="display:none;">
	<g style="display:inline;">
		<path style="fill:#407BFF;" d="M162.814,169.755C117.673,195.794,60.972,193.62,58.94,262.143
			c-1.413,47.639,34.535,74.475,74.408,91.511c38.109,16.283,82.093,33.885,119.916,11.74
			c25.615-14.997,34.734-36.863,67.525-40.897c20.718-2.548,36.51,9.997,57.947-0.756c92.542-46.418,40.749-163.678-18.121-208.352
			c-33.55-25.459-95.768-54.154-139.478-40.29C170.169,91.267,203.146,146.49,162.814,169.755z"/>
		<path style="opacity:0.9;fill:#FFFFFF;" d="M162.814,169.755C117.673,195.794,60.972,193.62,58.94,262.143
			c-1.413,47.639,34.535,74.475,74.408,91.511c38.109,16.283,82.093,33.885,119.916,11.74
			c25.615-14.997,34.734-36.863,67.525-40.897c20.718-2.548,36.51,9.997,57.947-0.756c92.542-46.418,40.749-163.678-18.121-208.352
			c-33.55-25.459-95.768-54.154-139.478-40.29C170.169,91.267,203.146,146.49,162.814,169.755z"/>
	</g>
</g>
<g id="Shadow">
	<ellipse style="fill:#F5F5F5;" cx="250" cy="416.238" rx="193.889" ry="11.323"/>
</g>
<g id="Speech_Bubble">
	<g>
		<g>
			<g>
				<path style="fill:#407BFF;" d="M391.494,164.288h-83.266c-6.708,0-12.196,5.488-12.196,12.196v45.054
					c0,6.708,5.488,12.196,12.196,12.196h8.428l-3.28,13.242c0,0,14.353-0.468,24.447-13.242h53.671
					c6.708,0,12.196-5.488,12.196-12.196v-45.054C403.689,169.777,398.201,164.288,391.494,164.288z"/>
				<path style="opacity:0.3;" d="M391.494,164.288h-83.266c-6.708,0-12.196,5.488-12.196,12.196v45.054
					c0,6.708,5.488,12.196,12.196,12.196h8.428l-3.28,13.242c0,0,14.353-0.468,24.447-13.242h53.671
					c6.708,0,12.196-5.488,12.196-12.196v-45.054C403.689,169.777,398.201,164.288,391.494,164.288z"/>
			</g>
			<g>
				<g>
					<circle style="fill:#407BFF;" cx="381.675" cy="199.012" r="10.302"/>
					<circle style="fill:#407BFF;" cx="349.861" cy="199.012" r="10.302"/>
					<circle style="fill:#407BFF;" cx="318.046" cy="199.012" r="10.302"/>
				</g>
				<g style="opacity:0.1;">
					<circle style="fill:#FAFAFA;" cx="381.675" cy="199.012" r="10.302"/>
					<circle style="fill:#FAFAFA;" cx="349.861" cy="199.012" r="10.302"/>
					<circle style="fill:#FAFAFA;" cx="318.046" cy="199.012" r="10.302"/>
				</g>
			</g>
		</g>
		<g>
			<g>
				<path style="fill:#407BFF;" d="M187.334,99.594H270.6c6.708,0,12.196,5.488,12.196,12.196v45.054
					c0,6.708-5.488,12.196-12.196,12.196h-8.428l3.28,13.241c0,0-14.353-0.468-24.447-13.241h-53.671
					c-6.708,0-12.196-5.488-12.196-12.196V111.79C175.138,105.082,180.626,99.594,187.334,99.594z"/>
				<path style="opacity:0.1;fill:#FAFAFA;" d="M187.334,99.594H270.6c6.708,0,12.196,5.488,12.196,12.196v45.054
					c0,6.708-5.488,12.196-12.196,12.196h-8.428l3.28,13.241c0,0-14.353-0.468-24.447-13.241h-53.671
					c-6.708,0-12.196-5.488-12.196-12.196V111.79C175.138,105.082,180.626,99.594,187.334,99.594z"/>
			</g>
			<g>
				<g>
					<rect x="189.879" y="115.276" style="fill:#407BFF;" width="78.175" height="7.399"/>
					<rect x="189.879" y="130.611" style="fill:#407BFF;" width="60.285" height="7.399"/>
					<rect x="189.879" y="145.947" style="fill:#407BFF;" width="68.157" height="7.399"/>
				</g>
				<g style="opacity:0.3;">
					<rect x="189.879" y="115.276" width="78.175" height="7.399"/>
					<rect x="189.879" y="130.611" width="60.285" height="7.399"/>
					<rect x="189.879" y="145.947" width="68.157" height="7.399"/>
				</g>
			</g>
		</g>
	</g>
</g>
<g id="Character">
	<g>
		<g>
			<g>
				<g>
					<path style="fill:#407BFF;" d="M298.052,311.311v0.007c-0.557,0-1.117,0.012-1.683,0.052
						c-11.882,0.845-21.49,10.908-22.248,23.29c-0.173,2.828,0.107,5.562,0.771,8.132c2.737,10.589,3.76,21.579,3.76,32.544v31.955
						c0,2.317,1.803,4.195,4.027,4.195h15.372h-2.637h66.618V311.311H298.052z"/>
					<path style="opacity:0.3;" d="M298.052,311.311v0.007c-0.557,0-1.117,0.012-1.683,0.052
						c-11.882,0.845-21.49,10.908-22.248,23.29c-0.173,2.828,0.107,5.562,0.771,8.132c2.737,10.589,3.76,21.579,3.76,32.544v31.955
						c0,2.317,1.803,4.195,4.027,4.195h15.372h-2.637h66.618V311.311H298.052z"/>
				</g>
				<path style="fill:#407BFF;" d="M386.014,336.293c0-14.378-11.658-25.918-25.663-24.923c-11.882,0.845-21.49,10.908-22.248,23.29
					c-0.173,2.828,0.107,5.562,0.771,8.132c2.737,10.589,3.76,21.579,3.76,32.544v31.955c0,2.317,1.803,4.195,4.027,4.195h30.744
					c2.224,0,4.027-1.878,4.027-4.195v-33.831c0-10.286,1.076-20.579,3.714-30.491C385.711,340.845,386.014,338.606,386.014,336.293
					z"/>
			</g>
			<g>
				<rect x="227.824" y="350.664" style="fill:#407BFF;" width="101.165" height="60.823"/>
				<rect x="227.824" y="350.664" style="opacity:0.3;" width="101.165" height="60.823"/>
			</g>
			<g>
				<path style="fill:#407BFF;" d="M285.823,277.809H174.119c-10.231,0-18.525,8.294-18.525,18.525v68.081h148.753v-68.081
					C304.348,286.103,296.054,277.809,285.823,277.809z"/>
				<path style="opacity:0.4;" d="M285.823,277.809H174.119c-10.231,0-18.525,8.294-18.525,18.525v68.081h148.753v-68.081
					C304.348,286.103,296.054,277.809,285.823,277.809z"/>
			</g>
			<path style="fill:#407BFF;" d="M291.557,277.809h-95.479c-9.738,0-17.632,7.894-17.632,17.632v68.974h130.744v-68.974
				C309.189,285.703,301.295,277.809,291.557,277.809z"/>
			<g>
				<path style="fill:#407BFF;" d="M327.675,344.333h-94.074c-0.901,0-1.631,0.73-1.631,1.631v22.285
					c0,0.901,0.73,1.631,1.631,1.631h94.074c3.015,0,5.46-2.444,5.46-5.46v-14.627C333.135,346.778,330.69,344.333,327.675,344.333z
					"/>
				<path style="opacity:0.4;" d="M327.675,344.333h-94.074c-0.901,0-1.631,0.73-1.631,1.631v22.285c0,0.901,0.73,1.631,1.631,1.631
					h94.074c3.015,0,5.46-2.444,5.46-5.46v-14.627C333.135,346.778,330.69,344.333,327.675,344.333z"/>
			</g>
			<g>
				<path style="fill:#407BFF;" d="M360.261,414.528H148.748c-1.646,0-2.98-1.334-2.98-2.979v-0.062h217.472v0.062
					C363.241,413.194,361.907,414.528,360.261,414.528z"/>
				<path style="opacity:0.4;" d="M360.261,414.528H148.748c-1.646,0-2.98-1.334-2.98-2.979v-0.062h217.472v0.062
					C363.241,413.194,361.907,414.528,360.261,414.528z"/>
			</g>
		</g>
		<g>
			<g>
				<path style="fill:#B55B52;" d="M275.716,267.742l0.404,1.632l0.458,1.764c0.316,1.182,0.664,2.369,1.026,3.555
					c0.702,2.379,1.471,4.757,2.273,7.131c0.815,2.368,1.635,4.745,2.536,7.096c0.445,1.178,0.881,2.361,1.349,3.533l0.547,1.405
					c0.083,0.195,0.22,0.424,0.426,0.673c0.824,1.042,2.699,2.186,4.758,3.004c2.072,0.876,4.392,1.525,6.763,2.099
					c2.379,0.557,4.83,1.017,7.309,1.395c2.464,0.418,5.02,0.696,7.463,0.964l0.089,5.046c-5.384,0.528-10.66,0.588-16.112-0.003
					c-2.722-0.289-5.462-0.781-8.275-1.604c-1.402-0.429-2.821-0.96-4.258-1.678c-1.43-0.734-2.91-1.633-4.284-3.012
					c-0.682-0.688-1.334-1.495-1.879-2.429c-0.14-0.228-0.261-0.479-0.387-0.721l-0.247-0.503l-0.434-0.893
					c-0.582-1.189-1.16-2.383-1.699-3.595c-1.089-2.418-2.147-4.858-3.097-7.347c-0.974-2.48-1.859-5.001-2.664-7.565
					c-0.389-1.287-0.765-2.581-1.114-3.896l-0.509-1.99c-0.155-0.705-0.291-1.301-0.449-2.148L275.716,267.742z"/>
				<g>
					<path style="fill:#407BFF;" d="M272.527,257.111c4.025,1.025,6.84,17.587,6.84,17.587l-11.091,7.542
						c0,0-10.634-16.708-7.538-21.133C263.963,256.499,266.654,255.616,272.527,257.111z"/>
					<path style="opacity:0.5;fill:#FAFAFA;" d="M272.527,257.111c4.025,1.025,6.84,17.587,6.84,17.587l-11.091,7.542
						c0,0-10.634-16.708-7.538-21.133C263.963,256.499,266.654,255.616,272.527,257.111z"/>
				</g>
				<g>
					<path style="fill:#407BFF;" d="M272.891,263.132l-8.615,1.996l-0.826,8.422c2.253,4.645,4.828,8.69,4.828,8.69l6.727-4.57
						C274.715,273.796,273.986,265.75,272.891,263.132z"/>
					<path style="opacity:0.3;fill:#FAFAFA;" d="M272.891,263.132l-8.615,1.996l-0.826,8.422c2.253,4.645,4.828,8.69,4.828,8.69
						l6.727-4.57C274.715,273.796,273.986,265.75,272.891,263.132z"/>
				</g>
				<path style="fill:#B55B52;" d="M309.59,301.928l6.926-7.02l0.91,9.888c0,0-5.193,3.514-8.786,1.625L309.59,301.928z"/>
				<polygon style="fill:#B55B52;" points="324.659,293.859 324.973,302.179 317.427,304.796 316.517,294.908 				"/>
				<g>
					<path style="fill:#407BFF;" d="M272.527,257.111c0,0,4.652,1.639-4.667,58.937c-15.737,0-32.002,0-39.659,0
						c0.666-16.141,0.684-26.094-7.03-59.22c0,0,8.31-1.808,16.841-2.219c6.674-0.322,12.142-0.535,18.009,0.001
						C263.756,255.316,272.527,257.111,272.527,257.111z"/>
					<path style="opacity:0.5;fill:#FAFAFA;" d="M272.527,257.111c0,0,4.652,1.639-4.667,58.937c-15.737,0-32.002,0-39.659,0
						c0.666-16.141,0.684-26.094-7.03-59.22c0,0,8.31-1.808,16.841-2.219c6.674-0.322,12.142-0.535,18.009,0.001
						C263.756,255.316,272.527,257.111,272.527,257.111z"/>
				</g>
				<g>
					<path style="fill:#407BFF;" d="M260.621,255.13c-1.52-0.2-3.08-0.38-4.6-0.52c-5.87-0.54-11.34-0.32-18.01,0
						c-1.39,0.07-2.77,0.17-4.1,0.3l0.29,0.91c0.16,0.51,4.13,12.59,18.44,19l2.74,1.23l1.94-2.3
						C263.481,266.5,262.031,258.96,260.621,255.13z"/>
					<path style="opacity:0.3;" d="M260.621,255.13c-1.52-0.2-3.08-0.38-4.6-0.52c-5.87-0.54-11.34-0.32-18.01,0
						c-1.39,0.07-2.77,0.17-4.1,0.3l0.29,0.91c0.16,0.51,4.13,12.59,18.44,19l2.74,1.23l1.94-2.3
						C263.481,266.5,262.031,258.96,260.621,255.13z"/>
				</g>
				<g>
					<path style="fill:#407BFF;" d="M230.502,272.208l-5.118,4.356c1.094,5.793,1.824,10.621,2.296,14.913
						C228.635,287.175,231.071,275.502,230.502,272.208z"/>
					<path style="opacity:0.3;fill:#FAFAFA;" d="M230.502,272.208l-5.118,4.356c1.094,5.793,1.824,10.621,2.296,14.913
						C228.635,287.175,231.071,275.502,230.502,272.208z"/>
				</g>
				<path style="fill:#263238;" d="M245.195,205.037c-10.496-3.291-16.341,8.002-15.331,22.127
					c0.723,10.114-1.312,14.524-7.364,14.229c2.833,6.615,38.54,16.589,48.816,4.715c-2.899-1.566-4.35-8.553-2.224-14.816
					C273.888,217.167,269.436,195.847,245.195,205.037z"/>
				<path style="fill:#B55B52;" d="M239.797,234.332c1.136,5.794,2.27,16.411-1.784,20.278c0,0,3.429,10.807,16.262,16.557
					c6.815-8.035,1.747-16.556,1.747-16.556c-6.462-1.543-6.295-6.337-5.169-10.839L239.797,234.332z"/>
				<path style="fill:#9E4541;" d="M244.303,238.183l6.543,5.583c-0.27,1.066-0.48,2.146-0.555,3.197
					c-2.468-0.357-5.859-3.066-6.121-5.651C244.039,240.022,244.093,238.783,244.303,238.183z"/>
				<path style="fill:#B55B52;" d="M240.343,218.117c-2.272,9.421-3.435,13.361-0.222,19.541
					c4.833,9.297,16.901,10.027,21.942,1.474c4.538-7.698,7.491-21.812-0.43-28.272
					C253.828,204.496,242.615,208.695,240.343,218.117z"/>
				<path style="fill:#263238;" d="M238.666,223.648c0,0,19.501-6.064,10.584-16.314c-10.5,2.583-10.584,5.667-10.584,5.667V223.648
					z"/>
				<path style="fill:#263238;" d="M250.487,213.167c7.346,0.762,14.646,5.083,16.982,9c1.364-6.667-3.417-15-8.734-16.167
					c-5.318-1.167-11.734,1.333-11.734,1.333L250.487,213.167z"/>
				<path style="fill:#B55B52;" d="M235.488,224.367c-0.055,1.994,0.791,3.855,1.906,5.062c1.676,1.816,3.713,0.633,4.251-1.624
					c0.484-2.031,0.196-5.423-1.97-6.403C237.541,220.437,235.551,222.087,235.488,224.367z"/>
				<path style="fill:#263238;" d="M317.907,323.806c-22.133-0.307-36.646,14.89-36.646,14.89c2.116,6.16,3.459,10.773,3.459,10.773
					c12.128-2.151,25.907-3.099,37.275-5.833c10.259-2.467,11.44-14.844,10.383-20.021c-1.057-5.178-6.872-6.347-12.572-7.989
					c-6.503-1.874-18.938-1.92-27.845-1.867c-9.396,0.055-21.748,0.939-28.155,2.291c0,0-13.582-0.423-23.644-0.182
					c-5.88-0.84-2.422,7.7,6.857,14.931c9.627,7.502,22.06,10.416,34.128,8.596l0.072-0.011"/>
				<path style="fill:#263238;" d="M283.34,347.989l-2.819-10.602c-0.103-0.386-0.454-0.628-0.845-0.582l-8.71,1.023
					c-0.903,0.106-1.528,1.073-1.276,1.959c1.047,3.68,1.737,5.403,2.977,10.065c0.763,2.868,2.043,8.881,3.096,12.842
					c1.03,3.874,5.026,3.13,4.942,1.387c-0.376-7.819,1.043-11.312,2.473-14.36C283.437,349.171,283.49,348.553,283.34,347.989z"/>
				<path style="fill:#407BFF;" d="M284.51,354.246c-0.23,0-0.448-0.066-0.65-0.198c-1.166-0.762-1.51-3.549-1.611-5.142
					c-0.005-0.069,0.035-0.134,0.099-0.161c0.067-0.026,0.138-0.011,0.186,0.04c0.331,0.363,3.23,3.586,2.913,4.88
					c-0.057,0.233-0.213,0.403-0.451,0.489C284.827,354.216,284.665,354.246,284.51,354.246z M282.61,349.366
					c0.198,2.314,0.723,3.946,1.428,4.407c0.252,0.164,0.528,0.189,0.845,0.074c0.136-0.05,0.214-0.133,0.245-0.261
					C285.337,352.736,283.602,350.51,282.61,349.366z"/>
				<g>
					<polygon style="fill:#407BFF;" points="283.369,349.879 279.708,336.148 284.526,334.157 291.321,348.901 					"/>
					<polygon style="opacity:0.6;fill:#FAFAFA;" points="283.369,349.879 279.708,336.148 284.526,334.157 291.321,348.901 					"/>
				</g>
				<path style="fill:#407BFF;" d="M286.261,351.27c-1.166,0-3.271-1.406-3.977-2.271c-0.036-0.045-0.047-0.105-0.026-0.16
					c0.02-0.055,0.067-0.094,0.124-0.104c0.109-0.019,2.68-0.473,3.96,0.435c0.384,0.272,0.615,0.639,0.688,1.092
					c0.096,0.593-0.148,0.835-0.368,0.934C286.547,351.246,286.412,351.27,286.261,351.27z M282.735,349.013
					c0.986,1.018,3.12,2.18,3.792,1.884c0.063-0.028,0.255-0.114,0.18-0.585c-0.06-0.367-0.24-0.653-0.554-0.876
					C285.223,348.776,283.438,348.924,282.735,349.013z"/>
				<path style="fill:#263238;" d="M235.791,316.575c-12.307-1.577-30.52-2.19-31.562,10.641
					c-1.042,12.831,7.814,25.997,31.885,26.71c24.072,0.712,29.264-5.34,30.129-10.491c1.096-6.523,2.968-8.182-2.754-11.131
					C257.768,329.355,256.682,319.252,235.791,316.575z"/>
				<path style="fill:#263238;" d="M261.831,350.187l-2.824-10.601c-0.103-0.386,0.082-0.77,0.444-0.925l8.066-3.442
					c0.837-0.357,1.859,0.172,2.081,1.066c0.921,3.713,1.178,5.552,2.42,10.214c0.764,2.868,2.642,8.721,3.697,12.682
					c1.032,3.874-2.805,5.215-3.599,3.66c-3.56-6.971-6.529-9.297-9.285-11.231C262.335,351.261,261.982,350.751,261.831,350.187z"
					/>
				<path style="fill:#407BFF;" d="M263.32,356.373c-0.191,0-0.36-0.072-0.494-0.213c-0.919-0.965-0.005-5.204,0.102-5.684
					c0.015-0.068,0.071-0.119,0.14-0.127c0.072-0.007,0.136,0.027,0.166,0.09c0.704,1.433,1.791,4.022,1.158,5.264
					c-0.185,0.361-0.498,0.582-0.933,0.657C263.412,356.369,263.365,356.373,263.32,356.373z M263.148,351.021
					c-0.292,1.487-0.689,4.28-0.085,4.914c0.09,0.096,0.198,0.126,0.342,0.103c0.331-0.058,0.559-0.216,0.695-0.484
					C264.628,354.522,263.684,352.184,263.148,351.021z"/>
				<path style="fill:#407BFF;" d="M260.476,354.623c-0.232,0-0.523-0.121-0.717-0.632c-0.161-0.428-0.144-0.861,0.055-1.288
					c0.66-1.424,3.115-2.309,3.22-2.346c0.055-0.017,0.116-0.008,0.159,0.029c0.045,0.037,0.066,0.095,0.057,0.151
					c-0.205,1.244-1.617,3.974-2.705,4.081C260.521,354.622,260.499,354.623,260.476,354.623z M262.864,350.775
					c-0.654,0.273-2.275,1.032-2.754,2.065c-0.162,0.349-0.177,0.688-0.045,1.035c0.169,0.447,0.38,0.425,0.446,0.418
					C261.241,354.222,262.514,352.147,262.864,350.775z"/>
				<g>
					<polygon style="fill:#407BFF;" points="262.279,350.057 259.976,337.199 254.361,336.991 254.795,353.361 					"/>
					<polygon style="opacity:0.6;fill:#FAFAFA;" points="262.279,350.057 259.976,337.199 254.361,336.991 254.795,353.361 					"/>
				</g>
				<path style="fill:#263238;" d="M253.575,225.009c-0.231,0.753-0.02,1.486,0.472,1.637c0.492,0.151,1.079-0.337,1.31-1.09
					c0.231-0.753,0.02-1.486-0.473-1.637C254.392,223.768,253.806,224.256,253.575,225.009z"/>
				<path style="fill:#263238;" d="M262.085,227.623c-0.231,0.753-0.02,1.486,0.473,1.637c0.492,0.151,1.079-0.337,1.31-1.09
					c0.231-0.753,0.02-1.486-0.472-1.637C262.903,226.382,262.316,226.87,262.085,227.623z"/>
				<path style="fill:#263238;" d="M263.165,226.508l1.969,0.034C265.133,226.542,263.771,227.67,263.165,226.508z"/>
				<path style="fill:#A02724;" d="M259.438,228.226c0,0,0.282,3.634,1.208,5.63c-1.279,0.623-2.839-0.321-2.839-0.321
					L259.438,228.226z"/>
				<path style="fill:#263238;" d="M253.604,235.18c-0.021,0-0.044-0.005-0.065-0.015c-2.388-1.172-3.162-3.724-3.193-3.832
					c-0.023-0.078,0.022-0.16,0.1-0.183c0.077-0.023,0.16,0.022,0.183,0.1c0.007,0.025,0.771,2.537,3.041,3.65
					c0.072,0.036,0.103,0.124,0.067,0.197C253.711,235.15,253.659,235.18,253.604,235.18z"/>
				<path style="fill:#263238;" d="M253.149,219.945c-0.096,0-0.189-0.046-0.246-0.132c-0.09-0.136-0.053-0.319,0.084-0.409
					c2.06-1.36,3.948-0.565,4.027-0.531c0.15,0.065,0.218,0.238,0.153,0.387c-0.065,0.15-0.238,0.217-0.388,0.154
					c-0.067-0.028-1.683-0.696-3.469,0.482C253.262,219.93,253.205,219.945,253.149,219.945z"/>
				<path style="fill:#263238;" d="M267.469,225.06c-0.105,0-0.207-0.057-0.261-0.156c-1.013-1.9-2.798-2.078-2.815-2.079
					c-0.163-0.014-0.283-0.157-0.269-0.32c0.015-0.162,0.163-0.276,0.319-0.268c0.087,0.008,2.124,0.21,3.286,2.39
					c0.076,0.144,0.022,0.322-0.122,0.399C267.563,225.049,267.516,225.06,267.469,225.06z"/>
				<path style="fill:#263238;" d="M254.654,223.894l1.968,0.034C256.623,223.928,255.261,225.056,254.654,223.894z"/>
				<g>
					<path style="fill:#407BFF;" d="M227.607,313.721l-0.316,3.55c-0.139,0.275,0.187,0.556,0.646,0.556h40.12
						c0.358,0,0.654-0.175,0.676-0.4l0.358-3.55c0.025-0.246-0.285-0.454-0.676-0.454h-40.161
						C227.958,313.423,227.697,313.543,227.607,313.721z"/>
					<path style="opacity:0.3;" d="M227.607,313.721l-0.316,3.55c-0.139,0.275,0.187,0.556,0.646,0.556h40.12
						c0.358,0,0.654-0.175,0.676-0.4l0.358-3.55c0.025-0.246-0.285-0.454-0.676-0.454h-40.161
						C227.958,313.423,227.697,313.543,227.607,313.721z"/>
				</g>
				<path style="fill:#263238;" d="M233.001,318.211h-1.076c-0.214,0-0.377-0.11-0.363-0.245l0.504-4.612
					c0.015-0.135,0.202-0.245,0.416-0.245h1.076c0.214,0,0.377,0.11,0.363,0.245l-0.504,4.612
					C233.403,318.101,233.215,318.211,233.001,318.211z"/>
				<path style="fill:#263238;" d="M265.034,318.211h-1.076c-0.214,0-0.377-0.11-0.363-0.245l0.504-4.612
					c0.015-0.135,0.202-0.245,0.416-0.245h1.076c0.214,0,0.377,0.11,0.363,0.245l-0.504,4.612
					C265.435,318.101,265.248,318.211,265.034,318.211z"/>
				<path style="fill:#263238;" d="M249.018,318.211h-1.076c-0.214,0-0.377-0.11-0.363-0.245l0.504-4.612
					c0.015-0.135,0.202-0.245,0.416-0.245h1.076c0.214,0,0.377,0.11,0.363,0.245l-0.504,4.612
					C249.419,318.101,249.232,318.211,249.018,318.211z"/>
			</g>
			<g>
				<polygon style="fill:#FAFAFA;" points="338.919,288.637 269.319,288.637 259.232,329.737 328.832,329.737 				"/>
				<polygon style="fill:#FAFAFA;" points="303.656,322.082 261.09,332.008 233.772,324.354 234.053,322.082 				"/>
				<path style="fill:#B55B52;" d="M227.096,270.956c-0.833,2.728-1.735,5.555-2.533,8.35c-0.835,2.797-1.654,5.593-2.386,8.391
					c-0.715,2.798-1.423,5.589-1.962,8.329c-0.264,1.368-0.501,2.725-0.664,4.018c-0.166,1.227-0.209,2.801-0.18,2.717
					c0.059,0.375,0.469,1.159,1.178,1.949c0.699,0.799,1.655,1.608,2.686,2.373c2.086,1.545,4.53,2.933,7.054,4.215
					c5.068,2.532,10.547,4.782,15.98,6.751l-1.208,4.9c-6.081-1.038-11.952-2.506-17.812-4.703c-2.923-1.11-5.828-2.389-8.706-4.138
					c-1.432-0.9-2.864-1.895-4.255-3.22c-1.366-1.322-2.799-2.99-3.631-5.473c-0.193-0.625-0.351-1.279-0.426-1.967l-0.049-0.517
					l-0.02-0.378l-0.026-0.691c-0.02-0.906,0.005-1.763,0.046-2.604c0.089-1.673,0.271-3.266,0.499-4.832
					c0.448-3.131,1.045-6.153,1.747-9.136c0.7-2.979,1.444-5.929,2.271-8.848c0.865-2.921,1.705-5.787,2.733-8.714L227.096,270.956z
					"/>
				<g>
					<path style="fill:#407BFF;" d="M221.171,256.828c-3.973,1.208-10.055,16.803-10.055,16.803l15.415,11.021
						c0,0,6.931-13.334,5.261-18.47C230.054,260.834,225.705,255.45,221.171,256.828z"/>
					<path style="opacity:0.5;fill:#FAFAFA;" d="M221.171,256.828c-3.973,1.208-10.055,16.803-10.055,16.803l15.415,11.021
						c0,0,6.931-13.334,5.261-18.47C230.054,260.834,225.705,255.45,221.171,256.828z"/>
				</g>
				<path style="fill:#B55B52;" d="M244.272,318.395l9.263-2.347l-4.413,8.896c0,0-6.265,0.267-8.332-3.226L244.272,318.395z"/>
				<polygon style="fill:#B55B52;" points="261.017,319.427 256.919,326.675 249.122,324.944 253.535,316.048 				"/>
				<polygon style="fill:#407BFF;" points="341.061,288.637 271.462,288.637 261.374,329.737 330.974,329.737 				"/>
				<polygon style="fill:#407BFF;" points="330.974,329.737 330.693,332.008 261.09,332.008 261.371,329.737 				"/>
			</g>
		</g>
		<g>
			<g>
				<rect x="383.611" y="379.567" style="fill:#407BFF;" width="1" height="11.988"/>
				<rect x="383.611" y="379.567" style="opacity:0.3;" width="1" height="11.988"/>
			</g>
			<g>
				<rect x="383.611" y="396.167" style="fill:#407BFF;" width="1" height="4.264"/>
				<rect x="383.611" y="396.167" style="opacity:0.3;" width="1" height="4.264"/>
			</g>
			<g>
				<path style="fill:#407BFF;" d="M146.977,311.311v0.007c-0.557,0-1.117,0.012-1.683,0.052
					c-11.882,0.845-21.49,10.908-22.248,23.29c-0.173,2.828,0.107,5.562,0.771,8.132c2.737,10.589,3.76,21.579,3.76,32.544v31.955
					c0,2.317,1.803,4.195,4.027,4.195h15.372h15.372h66.618V311.311H146.977z"/>
				<path style="opacity:0.3;" d="M146.977,311.311v0.007c-0.557,0-1.117,0.012-1.683,0.052
					c-11.882,0.845-21.49,10.908-22.248,23.29c-0.173,2.828,0.107,5.562,0.771,8.132c2.737,10.589,3.76,21.579,3.76,32.544v31.955
					c0,2.317,1.803,4.195,4.027,4.195h15.372h15.372h66.618V311.311H146.977z"/>
			</g>
			<path style="fill:#407BFF;" d="M252.947,336.293c0-14.378-11.658-25.918-25.663-24.923c-11.882,0.845-21.49,10.908-22.248,23.29
				c-0.173,2.828,0.107,5.562,0.771,8.132c2.737,10.589,3.76,21.579,3.76,32.544v31.955c0,2.317,1.803,4.195,4.027,4.195h30.745
				c2.224,0,4.027-1.878,4.027-4.195v-33.831c0-10.286,1.076-20.579,3.713-30.491C252.645,340.845,252.947,338.606,252.947,336.293z
				"/>
		</g>
	</g>
</g>
</svg>
